# xmcd
#
# Track frame offsets:
#	150
#	21909
#	41690
#	60203
#	74592
#	92774
#	109531
#	121798
#	139984
#	160670
#	174937
#	221964
#
# Disc length: 3037 seconds
#
# Revision: 0
# Processed by: cddbd v1.4PL0 Copyright (c) Steve Scherf et al.
# Submitted via: dBpowerAMP V4.0
#
DISCID=a20bdb0c
DTITLE=Big House - Woodstock Nation
DYEAR=2000
DGENRE=Country
TTITLE0=Geronimo's Moon
TTITLE1=Buck These Haggard Blues
TTITLE2=River Town
TTITLE3=Girl Can't Help It
TTITLE4=Praying To Live
TTITLE5=Lonely Shade Of Blue
TTITLE6=I'm Movin' On
TTITLE7=Woodstock Nation
TTITLE8=Don't Do Me Any Favors
TTITLE9=He Don't Need To Know
TTITLE10=I Walk Alone
TTITLE11=The 7th Angel Introduction
EXTD=
EXTT0=
EXTT1=
EXTT2=
EXTT3=
EXTT4=
EXTT5=
EXTT6=
EXTT7=
EXTT8=
EXTT9=
EXTT10=
EXTT11=
PLAYORDER=
